<svg width="16" height="16" xmlns="http://www.w3.org/2000/svg">
 <title/>
 <desc/>

 <g>
  <title>background</title>
  <rect fill="none" id="canvas_background" height="402" width="582" y="-1" x="-1"/>
 </g>
 <g>
  <title>Layer 1</title>
  <path fill="#1e272e" id="Shape" d="m13.6,2.4c-1.4,-1.5 -3.4,-2.4 -5.6,-2.4c-4.4,0 -8,3.6 -8,8c0,4.4 3.6,8 8,8c3.7,0 6.8,-2.6 7.7,-6l-2.1,0c-0.8,2.3 -3,4 -5.6,4c-3.3,0 -6,-2.7 -6,-6c0,-3.3 2.7,-6 6,-6c1.7,0 3.1,0.7 4.2,1.8l-3.2,3.2l7,0l0,-7l-2.4,2.4l0,0z"/>
 </g>
</svg>